PathFileType	4	(X/Y/Z)	./resultDataOpenSim/trcMotMarkerGrf/sub06/qtm-03-01.trc
DataRate	CameraRate	NumFrames	NumMarkers	Units	OrigDataRate	OrigDataStartFrame	OrigNumFrames
250.000000	250.000000	10	24	m	250.000000	435	496
Frame#	Time	L.Toe.Tip			R.Toe.Tip			L.Ankle.Lat			R.Ankle.Lat			L.Ankle.Med			R.Ankle.Med			L.Heel			R.Heel			L.Knee.Lat			R.Knee.Lat			L.Knee.Med			R.Knee.Med			L.Thigh.Upper			R.Thigh.Upper			L.ASIS			R.ASIS			V.Sacral			L.Acromium			R.Acromium			C7			L.Elbow			R.Elbow			L.Wrist.Lat			R.Wrist.Lat
		X1	Y1	Z1	X2	Y2	Z2	X3	Y3	Z3	X4	Y4	Z4	X5	Y5	Z5	X6	Y6	Z6	X7	Y7	Z7	X8	Y8	Z8	X9	Y9	Z9	X10	Y10	Z10	X11	Y11	Z11	X12	Y12	Z12	X13	Y13	Z13	X14	Y14	Z14	X15	Y15	Z15	X16	Y16	Z16	X17	Y17	Z17	X18	Y18	Z18	X19	Y19	Z19	X20	Y20	Z20	X21	Y21	Z21	X22	Y22	Z22	X23	Y23	Z23	X24	Y24	Z24

435	1.736	1.7144873	0.033687285	-0.013531671	1.0956603	0.079281783	0.14093008	1.5890656	0.066566522	-0.036551435	1.1064326	0.2154581	0.18429833	1.5893662	0.078729873	0.050488713	1.146263	0.20764673	0.10366001	1.5133031	0.039044903	0.0057694309	1.088702	0.26664681	0.12289234	1.6300637	0.43908673	-0.052196204	1.4461839	0.38953832	0.22706628	1.6010133	0.43317093	0.065886512	1.4476016	0.37176204	0.092870128	1.4910096	0.810455	-0.11624799	1.4084248	0.75482403	0.21851699	1.5450747	0.84717159	-0.058137758	1.5083717	0.82147837	0.18250605	1.3354425	0.90237864	0.050425551	1.4515227	1.3014335	-0.15038195	1.4347941	1.3129458	0.21378712	1.3609614	1.3421936	0.024792669	1.3603251	0.99727637	-0.18178521	1.3747439	0.99521238	0.29547725	1.4587521	0.78161944	-0.24126077	1.5953207	0.87670305	0.28145216
436	1.74	1.7143978	0.033702508	-0.013665814	1.1109434	0.080885981	0.14216092	1.5889039	0.066488048	-0.036566625	1.1198108	0.21723536	0.18492901	1.5894536	0.078859309	0.050340825	1.159401	0.20962043	0.10426571	1.5131947	0.038983103	0.0058005087	1.1008784	0.26793931	0.12354279	1.6317491	0.43868318	-0.052611752	1.4587621	0.39140351	0.22775715	1.6028465	0.43305023	0.065521046	1.459728	0.37423003	0.093556012	1.4960012	0.81134634	-0.11655049	1.4090946	0.75743081	0.21867937	1.5503344	0.84806094	-0.058465937	1.5139421	0.82313775	0.18263855	1.3412973	0.9039859	0.050131622	1.4579848	1.3027675	-0.15050849	1.4403066	1.3144651	0.21370416	1.3670288	1.3437508	0.024469213	1.3686091	0.99763026	-0.18229716	1.3790879	0.99667814	0.29429481	1.4706326	0.78333429	-0.24103574	1.5973649	0.87480313	0.28241357
437	1.744	1.7143266	0.033714287	-0.013782607	1.126679	0.082310455	0.14312314	1.5887486	0.066455414	-0.036646534	1.1333142	0.21876687	0.18552091	1.5897687	0.079068487	0.050170619	1.1726686	0.21147062	0.10483732	1.5131179	0.038941572	0.0058945843	1.1129289	0.26893768	0.12422173	1.6334009	0.43835725	-0.05292746	1.4712957	0.39345658	0.22839096	1.6044853	0.43299219	0.065208224	1.4718302	0.37665645	0.094307513	1.5007282	0.81218143	-0.11682487	1.4100953	0.75998682	0.21867552	1.5555416	0.84894391	-0.058803979	1.5195309	0.8248361	0.18278047	1.3471062	0.90563903	0.04986026	1.4643565	1.3041543	-0.15061104	1.4458366	1.3159966	0.21362751	1.3730371	1.3453222	0.024165665	1.3769129	0.99803527	-0.18281825	1.3836687	0.99818036	0.2931708	1.4825432	0.78516729	-0.24074815	1.5993424	0.87296874	0.2833917
438	1.748	1.7142679	0.033717492	-0.013884835	1.142758	0.083472986	0.14408687	1.5886108	0.066481168	-0.036802416	1.1469103	0.22005467	0.18609003	1.5901133	0.079292915	0.050009863	1.1860372	0.21318994	0.1053766	1.5130636	0.038932569	0.0059696037	1.1249169	0.26960029	0.12487687	1.6350171	0.43811418	-0.053146611	1.4837466	0.39569639	0.22897123	1.6058898	0.43299051	0.064930797	1.4838753	0.37910632	0.094992858	1.505338	0.81299983	-0.117115	1.4143906	0.76182123	0.21821331	1.5606998	0.84982255	-0.059149136	1.5251065	0.82656589	0.18291488	1.352887	0.90734637	0.049620471	1.4706331	1.3055882	-0.15068737	1.45138	1.3175407	0.2135559	1.3789854	1.3468966	0.023889584	1.3852277	0.99849992	-0.1833483	1.3882264	0.99974121	0.29209768	1.4944875	0.78711527	-0.24040728	1.601261	0.87120597	0.28438654
439	1.752	1.714212	0.033712646	-0.013974034	1.1591177	0.08436075	0.14518726	1.5884982	0.066531375	-0.036966064	1.1605737	0.22111193	0.18664817	1.5903276	0.079475835	0.049886513	1.1994862	0.21477065	0.10590777	1.513017	0.038949205	0.0059879994	1.1369323	0.26992631	0.12545303	1.6365821	0.43794448	-0.053279374	1.4960804	0.39811988	0.22949608	1.6071243	0.43304617	0.064698714	1.495933	0.38162104	0.095539841	1.509945	0.81382747	-0.11744209	1.4218253	0.76298261	0.21740961	1.5658391	0.85070037	-0.059512446	1.5306496	0.82831647	0.18302931	1.3586653	0.90909625	0.04940208	1.4768137	1.3070672	-0.15073503	1.4569097	1.3191046	0.21349242	1.3848745	1.3484605	0.023648837	1.3935501	0.99902322	-0.18388895	1.3924833	1.0013898	0.29107047	1.5064708	0.78917508	-0.24002237	1.6031159	0.86952599	0.28539296
440	1.756	1.7141507	0.033705162	-0.014048194	1.1757258	0.085017027	0.14641405	1.5884034	0.066565083	-0.037075638	1.1742941	0.22196226	0.18719551	1.5903938	0.079609379	0.049806657	1.2130045	0.21619391	0.10645059	1.5129655	0.038980169	0.0059591644	1.1490512	0.26994254	0.12595312	1.6380757	0.43782841	-0.053340016	1.5082858	0.40072012	0.22996047	1.6083539	0.43316867	0.064547498	1.5080973	0.38418205	0.095935055	1.5145217	0.8146625	-0.11778424	1.4306009	0.76390735	0.21658031	1.5710069	0.85158549	-0.05992293	1.536169	0.83007827	0.18311816	1.3644569	0.9108614	0.049194412	1.4829053	1.3085968	-0.15075679	1.462401	1.3206933	0.21343956	1.3907076	1.3500059	0.023442639	1.4018822	0.99959738	-0.18443788	1.3963658	1.0031327	0.29008637	1.5184859	0.7913448	-0.239591	1.6048982	0.86793488	0.2864057
441	1.76	1.7140823	0.033701856	-0.014103303	1.1925453	0.08548976	0.14772055	1.5883092	0.066576013	-0.037136395	1.1880696	0.22262294	0.18772503	1.5903731	0.079715637	0.049760509	1.2265915	0.21741819	0.10699405	1.5128974	0.039017311	0.0058839535	1.1613064	0.26965929	0.12647045	1.6394947	0.43774675	-0.053335485	1.5203719	0.40348622	0.2303586	1.6096819	0.43335457	0.064501462	1.5203902	0.38675168	0.096193482	1.5189757	0.81547937	-0.11811299	1.4392436	0.76495933	0.21596396	1.576219	0.8524909	-0.060400442	1.5416844	0.83184598	0.18317865	1.3702407	0.91261363	0.049001178	1.4889215	1.3101883	-0.15076005	1.4678472	1.322305	0.21339338	1.3964905	1.3515377	0.02326593	1.4102251	1.0002207	-0.18498975	1.4000615	1.004947	0.28914563	1.5305042	0.79362436	-0.23910149	1.6066014	0.86643279	0.28742685
442	1.764	1.7140117	0.033706931	-0.014137653	1.2095509	0.085810069	0.14908213	1.58821	0.066584869	-0.037180182	1.2019222	0.2230767	0.18823753	1.5903225	0.079813168	0.049734882	1.2402642	0.21839359	0.1075298	1.5128057	0.039047902	0.005755133	1.1736758	0.26907464	0.1271667	1.6408603	0.43768609	-0.053262418	1.5323441	0.40640971	0.23068664	1.6110493	0.43357162	0.064552405	1.5327382	0.38933399	0.096348984	1.5232423	0.81624804	-0.11840829	1.4472248	0.7662658	0.21562428	1.581436	0.85342984	-0.060928431	1.5472033	0.83361648	0.18320461	1.3759571	0.91433377	0.048836169	1.4948728	1.3118492	-0.15075198	1.4732561	1.3239354	0.21334681	1.402231	1.3530676	0.023115702	1.4185802	1.0008954	-0.18554079	1.4038493	1.0068068	0.28825314	1.5424977	0.79601317	-0.23854379	1.6082228	0.86501958	0.288464
443	1.768	1.7139471	0.0337189	-0.014153573	1.2267676	0.086004401	0.15048326	1.5881192	0.066611902	-0.037216697	1.2159481	0.22325265	0.18875736	1.5902828	0.079910568	0.049718564	1.2540613	0.2190773	0.10809554	1.5127019	0.039060292	0.005614278	1.1861325	0.2682051	0.12810802	1.6421963	0.43763895	-0.053120351	1.5442005	0.4094861	0.23094567	1.6123465	0.43377445	0.064684063	1.5450265	0.39196236	0.096443702	1.527334	0.81696248	-0.11864236	1.4546777	0.76778288	0.21549911	1.5866019	0.85440867	-0.061467421	1.5527293	0.83538599	0.18318621	1.3815676	0.91601272	0.048705358	1.5007601	1.3135734	-0.15073405	1.4786474	1.3255804	0.21330063	1.4079389	1.354599	0.022987823	1.4269516	1.0016187	-0.1860913	1.4078857	1.0087086	0.28740987	1.5544708	0.79850999	-0.23791315	1.609764	0.86369616	0.2895209
444	1.772	1.7138937	0.033731389	-0.014155092	1.2442625	0.086105004	0.15190109	1.5880529	0.066663456	-0.037239343	1.230313	0.22304803	0.18932957	1.5902938	0.080013922	0.049702117	1.2680421	0.21943454	0.10877541	1.512618	0.039064151	0.0055502712	1.1987235	0.26708363	0.12908518	1.6435093	0.43760275	-0.052919078	1.5559467	0.41269975	0.23114084	1.6135575	0.43393753	0.064886157	1.5571736	0.39465133	0.096497333	1.5313948	0.81765376	-0.11879069	1.4619192	0.76942157	0.21549811	1.5916903	0.85542569	-0.061989405	1.558286	0.83715165	0.18311494	1.3871005	0.91765823	0.048601785	1.5065819	1.3153399	-0.15070116	1.4840603	1.3272353	0.21327299	1.4136241	1.3561249	0.022875153	1.4353396	1.0023842	-0.18664679	1.4121442	1.0106672	0.28660494	1.5664643	0.80111567	-0.23720565	1.6112347	0.8624626	0.29059243
